<?xml version="1.0" encoding="UTF-8"?>
<svg id="Layer_2" data-name="Layer 2" xmlns="http://www.w3.org/2000/svg" viewBox="0 0 117.1 39.2">
  <defs>
    <style>
      .cls-1 {
        fill: #f9ec11;
      }

      .cls-1, .cls-2, .cls-3 {
        stroke-width: 0px;
      }

      .cls-2 {
        fill: #fff;
      }

      .cls-3 {
        fill: #e93926;
      }
    </style>
  </defs>
  <g id="Layer_1-2" data-name="Layer 1">
    <g>
      <path class="cls-3" d="M62.97,11.1c0-6.13,4.96-11.1,11.1-11.1h31.94c6.12,0,11.09,4.97,11.09,11.1v16.95c0,6.12-4.97,11.09-11.09,11.09h-43.09l.05-28.04Z"/>
      <path class="cls-1" d="M103,6.62c0-1.12.71-1.86,1.86-1.86s1.86.74,1.86,1.86v4.49h4.49c1.14,0,1.86.74,1.86,1.85s-.71,1.86-1.86,1.86h-4.49v4.49c0,1.12-.71,1.86-1.86,1.86s-1.86-.74-1.86-1.86v-4.49h-4.49c-1.15,0-1.86-.75-1.86-1.86s.71-1.85,1.86-1.85h4.49v-4.49Z"/>
      <path class="cls-2" d="M90.61,15.89c-1.4,0-2.48.35-3.42,1.01-.8.49-1.5,1.18-2.09,2.12h-.07c-.73-1.88-2.47-3.14-4.7-3.14-2.86,0-4.39,1.57-5.23,2.89h-.11l-.04-.6-.05-1.91h-6.78v3.05l3.12.3c0,.54,0,1.1,0,1.7v11.92h4.18v-10.03c0-.49.07-.98.25-1.39.38-1.18,1.46-2.44,3.06-2.44,1.99,0,2.93,1.68,2.93,4.05v9.82h4.18v-10.17c0-.49.11-1.01.21-1.43.45-1.22,1.54-2.27,3-2.27,2.05,0,3.03,1.68,3.03,4.5v9.38h4.18v-10c0-5.44-2.86-7.35-5.68-7.35"/>
      <path class="cls-3" d="M.47,9.65c0-1.15-.02-2.11-.08-2.98h2.17l.1,1.48h.06c.49-.78,1.4-1.7,3.07-1.7,1.31,0,2.34.74,2.77,1.84h.04c.35-.55.76-.96,1.23-1.25.55-.39,1.19-.59,2.01-.59,1.66,0,3.34,1.12,3.34,4.32v5.88h-2.46v-5.51c0-1.66-.57-2.65-1.78-2.65-.86,0-1.49.62-1.76,1.34-.06.24-.12.55-.12.84v5.98h-2.46v-5.78c0-1.4-.55-2.38-1.72-2.38-.94,0-1.58.74-1.81,1.44-.1.25-.14.53-.14.82v5.9H.47v-7.01Z"/>
      <path class="cls-3" d="M25.76,13.66c0,1.19.04,2.17.08,2.99h-2.21l-.12-1.52h-.04c-.43.72-1.41,1.75-3.2,1.75s-3.48-1.09-3.48-4.35v-5.86h2.52v5.43c0,1.66.54,2.73,1.87,2.73,1.01,0,1.66-.72,1.93-1.35.08-.22.14-.49.14-.78v-6.03h2.52v6.99Z"/>
      <path class="cls-3" d="M27.47,9.65c0-1.15-.02-2.11-.08-2.98h2.21l.12,1.5h.06c.43-.77,1.52-1.72,3.18-1.72,1.74,0,3.55,1.12,3.55,4.28v5.92h-2.52v-5.63c0-1.44-.53-2.53-1.91-2.53-1,0-1.7.72-1.97,1.48-.08.23-.1.53-.1.82v5.86h-2.54v-7.01Z"/>
      <path class="cls-3" d="M44.84,10.83c0-.21-.02-.45-.06-.65-.23-.99-1.02-1.79-2.17-1.79-1.62,0-2.52,1.43-2.52,3.29s.9,3.16,2.5,3.16c1.02,0,1.93-.7,2.17-1.79.06-.22.08-.47.08-.74v-1.49ZM47.36,2.1v11.74c0,1.02.04,2.13.08,2.8h-2.25l-.1-1.58h-.04c-.59,1.11-1.8,1.81-3.26,1.81-2.37,0-4.26-2.03-4.26-5.1-.02-3.34,2.07-5.33,4.46-5.33,1.38,0,2.36.57,2.81,1.31h.04V2.1h2.52Z"/>
      <path class="cls-3" d="M51.01,11.67c0,1.93.94,3.38,2.48,3.38,1.44,0,2.44-1.41,2.44-3.42,0-1.56-.7-3.34-2.42-3.34s-2.5,1.72-2.5,3.38M58.53,11.57c0,3.67-2.58,5.31-5.12,5.31-2.83,0-5-1.95-5-5.15s2.15-5.29,5.16-5.29,4.96,2.09,4.96,5.12"/>
      <path class="cls-3" d="M6.94,25.52c-2.47-.07-5.72.31-5.72,3.01,0,1.63,1.08,2.36,2.26,2.36,1.88,0,2.94-1.15,3.34-2.26.07-.24.12-.47.12-.68v-2.43ZM8.05,28.89c0,.89.05,1.81.17,2.69h-1.01l-.16-1.62h-.07c-.54.87-1.79,1.88-3.6,1.88C1.1,31.84.04,30.23.04,28.73c0-2.61,2.31-4.2,6.9-4.15v-.29c0-1.13-.21-3.36-2.9-3.34-.99,0-2.02.26-2.83.85l-.36-.82c1.02-.68,2.29-.97,3.3-.97,3.28,0,3.89,2.45,3.89,4.47v4.41Z"/>
      <path class="cls-3" d="M11.73,22.98c0-1.04-.05-1.81-.1-2.71h1.04l.09,2h.04c.71-1.3,1.79-2.26,3.65-2.26,1.58,0,2.78,1.03,3.25,2.47h.04c.33-.68.73-1.18,1.15-1.53.73-.61,1.51-.94,2.71-.94,1.11,0,3.68.61,3.68,4.9v6.67h-1.11v-6.55c0-2.55-.99-4.05-2.94-4.05-1.42,0-2.55,1.04-2.97,2.23-.12.33-.21.71-.21,1.11v7.26h-1.11v-7.07c0-2.05-.99-3.53-2.8-3.53-1.53,0-2.71,1.22-3.14,2.54-.11.31-.18.71-.18,1.08v6.97h-1.11v-8.6Z"/>
      <path class="cls-3" d="M32.58,17.77v2.5h3.23v.89h-3.23v7.35c0,1.44.45,2.36,1.65,2.36.59,0,1.02-.1,1.3-.19l.14.87c-.38.16-.9.28-1.58.28-.83,0-1.51-.28-1.93-.82-.52-.59-.71-1.54-.71-2.69v-7.16h-1.91v-.89h1.91v-2.08l1.13-.42Z"/>
      <path class="cls-3" d="M44.22,25.52c-2.48-.07-5.73.31-5.73,3.01,0,1.63,1.08,2.36,2.26,2.36,1.89,0,2.95-1.15,3.35-2.26.07-.24.12-.47.12-.68v-2.43ZM45.32,28.89c0,.89.04,1.81.17,2.69h-1.02l-.16-1.62h-.07c-.54.87-1.79,1.88-3.61,1.88-2.26,0-3.32-1.6-3.32-3.11,0-2.61,2.31-4.2,6.91-4.15v-.29c0-1.13-.21-3.36-2.9-3.34-.99,0-2.02.26-2.82.85l-.35-.82c1.01-.68,2.29-.97,3.3-.97,3.27,0,3.88,2.45,3.88,4.47v4.41Z"/>
      <path class="cls-3" d="M56.37,24.91c.02-1.58-.64-3.98-3.37-3.98-2.5,0-3.58,2.24-3.77,3.98h7.14ZM49.16,25.8c0,3.63,1.98,5.04,4.32,5.04,1.64,0,2.49-.33,3.13-.63l.28.9c-.42.23-1.58.73-3.56.73-3.25,0-5.28-2.38-5.28-5.7,0-3.77,2.17-6.12,5.09-6.12,3.7,0,4.4,3.48,4.4,5.11,0,.31,0,.49-.05.68h-8.34Z"/>
      <path class="cls-3" d="M2.88,37.13c-.03-.65-.07-1.31-.05-1.8h-.04c-.11.48-.24.97-.41,1.56l-.68,2.26h-.15l-.65-2.15c-.19-.65-.34-1.17-.44-1.67h-.03c.01.52-.01,1.14-.05,1.85l-.09,1.97h-.3l.24-4.2h.35l.65,2.17c.17.57.29.95.4,1.43h.02c.1-.49.21-.84.37-1.43l.63-2.17h.37l.26,4.2h-.31l-.11-2.02Z"/>
      <path class="cls-3" d="M4.35,37.05c0,.81.18,1.91.91,1.91s.9-1.09.9-1.91-.18-1.91-.91-1.91-.91,1.09-.91,1.91M6.48,37.05c0,1.57-.58,2.16-1.26,2.16-.6,0-1.19-.58-1.19-2.16s.59-2.15,1.27-2.15c.6,0,1.17.57,1.17,2.15"/>
      <polygon class="cls-3" points="7.63 35.18 6.75 35.18 6.75 34.95 8.8 34.95 8.8 35.18 7.92 35.18 7.92 39.15 7.63 39.15 7.63 35.18"/>
      <rect class="cls-3" x="9.49" y="34.95" width=".3" height="4.2"/>
      <path class="cls-3" d="M11.62,39.15l-1.08-4.2h.31l.53,2.07c.12.48.29,1.15.38,1.71h.03c.08-.57.24-1.2.37-1.72l.52-2.06h.3l-1.1,4.2h-.26Z"/>
      <path class="cls-3" d="M13.78,37.05c0,.81.18,1.91.92,1.91s.9-1.09.9-1.91-.18-1.91-.91-1.91-.91,1.09-.91,1.91M15.92,37.05c0,1.57-.59,2.16-1.26,2.16-.61,0-1.19-.58-1.19-2.16s.59-2.15,1.27-2.15c.6,0,1.18.57,1.18,2.15"/>
      <path class="cls-3" d="M16.62,38.77c.14.09.4.18.61.18.53,0,.87-.34.87-.86,0-.45-.28-.73-.63-.99-.2-.16-.88-.52-.88-1.16s.49-1.03,1.09-1.03c.28,0,.51.09.6.16l-.12.23c-.11-.07-.3-.15-.53-.15-.5,0-.74.38-.74.71,0,.52.31.71.71.99.53.38.79.74.79,1.22,0,.7-.53,1.12-1.16,1.12-.29,0-.6-.1-.73-.19l.11-.23Z"/>
      <path class="cls-3" d="M20.74,37.09c.07.01.14.02.24.02.56,0,1.01-.32,1.01-1.03,0-.47-.21-.92-.92-.92-.14,0-.26.01-.33.03v1.9ZM20.44,35.01c.18-.05.38-.08.66-.08.36,0,.69.11.89.3.2.18.32.47.32.84,0,.34-.08.56-.22.76-.24.33-.65.51-1.08.51-.11,0-.19,0-.27-.01v1.82h-.3v-4.15Z"/>
      <path class="cls-3" d="M24.17,37.47l-.3-1.19c-.08-.32-.14-.62-.21-.96h-.03c-.05.34-.12.65-.2.96l-.29,1.18h1.03ZM23.08,37.7l-.37,1.45h-.29l1.1-4.2h.29l1.12,4.2h-.3l-.38-1.45h-1.16Z"/>
      <path class="cls-3" d="M25.99,37.01h.26c.58,0,.99-.37.99-.95s-.26-.9-.93-.9c-.13,0-.24,0-.32.02v1.83ZM25.69,35.01c.19-.06.42-.08.63-.08.43,0,.72.1.93.3.2.19.31.48.31.78,0,.6-.31.91-.77,1.11h0c.36.09.56.41.67,1.02.12.64.19.9.25,1.02h-.29c-.07-.13-.15-.51-.26-1.06-.12-.61-.35-.87-.9-.87h-.26v1.93h-.3v-4.15Z"/>
      <path class="cls-3" d="M30,37.47l-.3-1.19c-.08-.32-.15-.62-.21-.96h-.03c-.05.34-.12.65-.2.96l-.29,1.18h1.03ZM28.91,37.7l-.37,1.45h-.29l1.1-4.2h.28l1.12,4.2h-.3l-.38-1.45h-1.16Z"/>
      <path class="cls-3" d="M33.04,37.09c.07.01.14.02.25.02.56,0,1-.32,1-1.03,0-.47-.21-.92-.91-.92-.15,0-.26.01-.34.03v1.9ZM32.74,35.01c.19-.05.38-.08.66-.08.36,0,.69.11.89.3.2.18.31.47.31.84,0,.34-.08.56-.22.76-.23.33-.64.51-1.08.51-.11,0-.19,0-.27-.01v1.82h-.3v-4.15Z"/>
      <polygon class="cls-3" points="36.93 37.06 35.69 37.06 35.69 38.91 37.11 38.91 37.11 39.15 35.4 39.15 35.4 34.95 37.02 34.95 37.02 35.18 35.69 35.18 35.69 36.82 36.93 36.82 36.93 37.06"/>
      <path class="cls-3" d="M38.11,37.01h.26c.57,0,.99-.37.99-.95s-.26-.9-.94-.9c-.12,0-.23,0-.32.02v1.83ZM37.81,35.01c.19-.06.42-.08.63-.08.44,0,.72.1.93.3.2.19.3.48.3.78,0,.6-.3.91-.77,1.11h0c.36.09.55.41.66,1.02.12.64.19.9.25,1.02h-.3c-.07-.13-.15-.51-.26-1.06-.12-.61-.35-.87-.9-.87h-.26v1.93h-.3v-4.15Z"/>
      <polygon class="cls-3" points="40.98 35.18 40.11 35.18 40.11 34.95 42.16 34.95 42.16 35.18 41.28 35.18 41.28 39.15 40.98 39.15 40.98 35.18"/>
      <polygon class="cls-3" points="44.37 37.06 43.14 37.06 43.14 38.91 44.56 38.91 44.56 39.15 42.84 39.15 42.84 34.95 44.47 34.95 44.47 35.18 43.14 35.18 43.14 36.82 44.37 36.82 44.37 37.06"/>
      <path class="cls-3" d="M45.26,39.15v-4.2h.3l.94,2.17c.23.53.48,1.1.66,1.61h.02c-.05-.8-.05-1.23-.05-1.92v-1.86h.29v4.2h-.3l-1-2.28c-.21-.47-.4-.91-.6-1.53h-.01c.05.65.05,1.11.05,2.04v1.77h-.29Z"/>
      <polygon class="cls-3" points="49.94 37.06 48.71 37.06 48.71 38.91 50.12 38.91 50.12 39.15 48.41 39.15 48.41 34.95 50.03 34.95 50.03 35.18 48.71 35.18 48.71 36.82 49.94 36.82 49.94 37.06"/>
      <path class="cls-3" d="M52.74,39.07c-.16.07-.37.12-.65.12-.73,0-1.44-.53-1.44-2.1,0-1.71.88-2.18,1.51-2.18.26,0,.46.04.55.1l-.1.24c-.12-.05-.23-.1-.5-.1-.48,0-1.15.46-1.15,1.9s.59,1.9,1.18,1.9c.23,0,.41-.05.52-.1l.09.23Z"/>
      <polygon class="cls-3" points="55 37.06 53.76 37.06 53.76 38.91 55.18 38.91 55.18 39.15 53.47 39.15 53.47 34.95 55.09 34.95 55.09 35.18 53.76 35.18 53.76 36.82 55 36.82 55 37.06"/>
      <path class="cls-3" d="M56.18,37.01h.26c.57,0,.99-.37.99-.95s-.26-.9-.94-.9c-.12,0-.23,0-.32.02v1.83ZM55.89,35.01c.19-.06.42-.08.63-.08.44,0,.72.1.93.3.2.19.3.48.3.78,0,.6-.3.91-.77,1.11h0c.36.09.56.41.67,1.02.12.64.19.9.25,1.02h-.3c-.07-.13-.15-.51-.25-1.06-.12-.61-.36-.87-.9-.87h-.26v1.93h-.3v-4.15Z"/>
    </g>
  </g>
</svg>